<svg width="28" height="20" xmlns="http://www.w3.org/2000/svg"><path d="M17.192 8.925l3.182-3.182a.748.748 0 0 1 1.06 0 .749.749 0 0 1 0 1.06l-3.181 3.182 3.181 3.182a.748.748 0 0 1 0 1.06.749.749 0 0 1-1.06 0l-3.182-3.181-3.181 3.181a.748.748 0 0 1-1.062 0 .749.749 0 0 1 0-1.06l3.182-3.182-3.181-3.181a.748.748 0 0 1 0-1.061.749.749 0 0 1 1.06 0l3.182 3.182zM8.436 1.149C9.11.476 10.254 0 11.208 0h13.005a3.494 3.494 0 0 1 3.494 3.5v13c0 1.932-1.565 3.5-3.494 3.5H11.208c-.95 0-2.102-.48-2.772-1.15L.295 10.71a1 1 0 0 1 0-1.42l8.141-8.14zM1.706 10l7.79 7.79c.388.387 1.159.71 1.712.71h13.005c1.1 0 1.994-.895 1.994-2v-13c0-1.11-.893-2-1.994-2H11.208c-.557 0-1.32.318-1.711.71L1.707 10z"/></svg>