<svg width="47" height="32" xmlns="http://www.w3.org/2000/svg"><path d="M45.706.897c.55.002.994.458.993.994l-.03 18.01c-.002.547-.44.991-1.009.991H5.121l9.808 8.247a.99.99 0 0 1 .111 1.406l-.171.204c-.358.423-1 .476-1.413.135L.765 20.39c-.423-.349-.413-.923 0-1.264L13.456 8.632a1.004 1.004 0 0 1 1.413.135l.171.204a.996.996 0 0 1-.111 1.406L5.12 18.624h38.986a.295.295 0 0 0 .293-.296V3.445a.303.303 0 0 0-.292-.295h-11.55a1.002 1.002 0 0 1-1.008-1.002v-.296a1 1 0 0 1 .994-.999l13.162.044z" fill-rule="evenodd"/></svg>