<svg width="33" height="42" xmlns="http://www.w3.org/2000/svg"><g fill="none" fill-rule="evenodd"><path d="M10.005 19.411H2.148c-2.763 0-2.352-2.748-1.551-3.578L15.457.427a1.362 1.362 0 0 1 1.981 0l14.834 15.407c1.902 1.976-.393 3.577-1.552 3.577h-7.858l2.143-2.117v9.886c0 1.557-1.288 2.82-2.87 2.82H10.732c-1.584 0-2.869-1.265-2.869-2.82v-9.886l2.143 2.117zm0-2.117v9.182c0 .777.638 1.406 1.425 1.406h10.007c.787 0 1.425-.63 1.425-1.406v-9.182h7.133c.4 0 .5-.233.233-.51L16.447 2.47 2.64 16.783c-.272.282-.175.51.233.51h7.132z" fill="#000" fill-rule="nonzero"/><path d="M10 34a1 1 0 0 0-1 1v4.105a1 1 0 0 0 1 1h12.583a1 1 0 0 0 1-1V35a1 1 0 0 0-1-1H10z" stroke="#000" stroke-width="2"/></g></svg>