<svg width="50" height="28" xmlns="http://www.w3.org/2000/svg"><path d="M1.006 15.218A1.004 1.004 0 0 1 0 14.216v-.265a.996.996 0 0 1 1.006-1.002h40.54l-9.808-8.246a.99.99 0 0 1-.112-1.407l.172-.203c.358-.424 1-.477 1.412-.135l12.692 10.494c.422.349.413.922 0 1.264L33.21 25.21a1.004 1.004 0 0 1-1.412-.136l-.172-.203a.996.996 0 0 1 .112-1.406l9.807-8.247H1.006zM47 1.364c0-.551.45-.998 1.003-.998h.327c.554 0 1.003.456 1.003.998v25.589c0 .551-.45.998-1.003.998h-.327A1.006 1.006 0 0 1 47 26.953V1.364z" fill-rule="evenodd"/></svg>