<?xml version="1.0" encoding="UTF-8"?>
<svg width="24px" height="24px" viewBox="0 0 24 24" version="1.1" xmlns="http://www.w3.org/2000/svg" xmlns:xlink="http://www.w3.org/1999/xlink">
    <!-- Generator: Sketch 52.6 (67491) - http://www.bohemiancoding.com/sketch -->
    <title>New</title>
    <desc>Created with Sketch.</desc>
    <g id="page1" stroke="none" stroke-width="1" fill="none" fill-rule="evenodd">
        <g id="iPad-Keyboard-portrait" transform="translate(-90.000000, -266.000000)" fill="#000000">
            <g id="keyboard">
                <g id="row" transform="translate(6.000000, 250.000000)">
                    <g id="key-grey" transform="translate(68.000000, 0.000000)">
                        <g id="New" transform="translate(16.500000, 16.500000)">
                            <path d="M8.32283501,21.4630265 C6.4466464,19.4749971 5.22727273,15.7577096 5.22727273,11.5 C5.22727273,7.24229035 6.4466464,3.52500289 8.32283501,1.53697353 C4.10239907,2.88169264 1.04545455,6.83385249 1.04545455,11.5 C1.04545455,16.1661475 4.10239907,20.1183074 8.32283501,21.4630265 Z M14.677165,1.53697353 C16.5533536,3.52500289 17.7727273,7.24229035 17.7727273,11.5 C17.7727273,15.7577096 16.5533536,19.4749971 14.677165,21.4630265 C18.8976009,20.1183074 21.9545455,16.1661475 21.9545455,11.5 C21.9545455,6.83385249 18.8976009,2.88169264 14.677165,1.53697353 Z M11.5,23 C5.14872538,23 0,17.8512746 0,11.5 C0,5.14872538 5.14872538,0 11.5,0 C17.8512746,0 23,5.14872538 23,11.5 C23,17.8512746 17.8512746,23 11.5,23 Z M11.5,21.9545455 C14.2750931,21.9545455 16.7272727,17.4113345 16.7272727,11.5 C16.7272727,5.58866551 14.2750931,1.04545455 11.5,1.04545455 C8.72490686,1.04545455 6.27272727,5.58866551 6.27272727,11.5 C6.27272727,17.4113345 8.72490686,21.9545455 11.5,21.9545455 Z" id="Shape" fill-rule="nonzero"></path>
                            <path d="M0.512252012,10.9761905 L10.9761905,10.9761905 L10.9761905,8.34858631 L10.9761905,8.34858631 C7.34944277,8.22981259 4.23631911,6.88479984 2.65633233,4.95745089 C2.86961909,4.66962363 3.0966232,4.39257297 3.33637833,4.12726524 C4.63427064,5.86694108 7.51268984,7.17934638 10.9761905,7.3003969 L10.9761905,0.512252012 C11.1497719,0.504114386 11.3244055,0.5 11.5,0.5 C11.6755945,0.5 11.8502281,0.504114386 12.0238095,0.512252012 L12.0238095,7.3003969 C15.4873102,7.17934638 18.3657294,5.86694108 19.6636217,4.12726524 C19.9033768,4.39257297 20.1303809,4.66962363 20.3436677,4.95745089 C18.7636809,6.88479984 15.6505572,8.22981259 12.0238095,8.34858631 L12.0238095,10.9761905 L12.0238095,10.9761905 L22.487748,10.9761905 C22.4958856,11.1497719 22.5,11.3244055 22.5,11.5 C22.5,11.6755945 22.4958856,11.8502281 22.487748,12.0238095 L12.0238095,12.0238095 L12.0238095,14.6514137 C15.6505572,14.7701874 18.7636809,16.1152002 20.3436677,18.0425491 C20.1303809,18.3303764 19.9033768,18.607427 19.6636217,18.8727348 C18.3657294,17.1330589 15.4873102,15.8206536 12.0238095,15.6996031 L12.0238095,22.487748 C11.8502281,22.4958856 11.6755945,22.5 11.5,22.5 C11.3244055,22.5 11.1497719,22.4958856 10.9761905,22.487748 L10.9761905,15.6996031 C7.51268984,15.8206536 4.63427064,17.1330589 3.33637833,18.8727348 C3.0966232,18.607427 2.86961909,18.3303764 2.65633233,18.0425491 C4.23631911,16.1152002 7.34944277,14.7701874 10.9761905,14.6514137 L10.9761905,14.6514137 L10.9761905,12.0238095 L0.512252012,12.0238095 C0.504114386,11.8502281 0.5,11.6755945 0.5,11.5 C0.5,11.3244055 0.504114386,11.1497719 0.512252012,10.9761905 L0.512252012,10.9761905 Z" id="Path"></path>
                        </g>
                    </g>
                </g>
            </g>
        </g>
    </g>
</svg>