<svg width="25" height="25" xmlns="http://www.w3.org/2000/svg"><path d="M10.214 16.948v2.626c0 1.318-.476 2.448-1.428 3.39-.953.942-2.098 1.413-3.437 1.413-1.338 0-2.48-.474-3.428-1.42C.974 22.008.5 20.86.5 19.511c0-1.318.474-2.456 1.42-3.413.948-.958 2.075-1.436 3.383-1.436H7.93V10.09H5.303c-1.308 0-2.435-.479-3.382-1.436C.974 7.697.5 6.555.5 5.226c0-1.338.474-2.481 1.42-3.428C2.869.85 4.01.377 5.35.377c1.338 0 2.483.471 3.436 1.413.952.942 1.428 2.072 1.428 3.39v2.626h4.572V5.18c0-1.318.476-2.448 1.428-3.39.953-.942 2.098-1.413 3.437-1.413 1.348 0 2.494.474 3.436 1.42.942.948 1.413 2.09 1.413 3.43 0 1.328-.471 2.47-1.413 3.428-.942.957-2.072 1.436-3.39 1.436H17.07v4.572h2.626c1.318 0 2.448.478 3.39 1.436.942.957 1.413 2.095 1.413 3.413 0 1.349-.471 2.497-1.413 3.444-.942.947-2.088 1.421-3.436 1.421-1.339 0-2.484-.471-3.437-1.413-.952-.942-1.428-2.072-1.428-3.39v-2.626h-4.572zm0-2.285h4.572V10.09h-4.572v4.572zM7.93 7.806v-2.58c0-.71-.253-1.315-.757-1.814a2.497 2.497 0 0 0-1.823-.75c-.7 0-1.302.25-1.807.75a2.459 2.459 0 0 0-.756 1.814c0 .71.252 1.318.756 1.823a2.484 2.484 0 0 0 1.823.757h2.564zm0 9.142H5.365c-.71 0-1.318.253-1.823.757a2.466 2.466 0 0 0-.756 1.807c0 .71.252 1.318.756 1.822a2.484 2.484 0 0 0 1.823.757c.7 0 1.302-.252 1.807-.757a2.466 2.466 0 0 0 .757-1.806v-2.58zm9.142-9.142h2.58c.7 0 1.302-.253 1.807-.757a2.484 2.484 0 0 0 .756-1.823c0-.71-.25-1.315-.749-1.814-.5-.5-1.104-.75-1.814-.75s-1.318.25-1.823.75a2.459 2.459 0 0 0-.757 1.814v2.58zm0 9.142v2.58c0 .7.253 1.302.757 1.806a2.484 2.484 0 0 0 1.823.757c.71 0 1.315-.252 1.814-.757.5-.504.75-1.111.75-1.822 0-.7-.253-1.302-.757-1.807a2.466 2.466 0 0 0-1.807-.757h-2.58z" fill-rule="evenodd"/></svg>